<svg height="511pt" fill="whitesmoke" viewBox="-45 0 511 511.99839" width="511pt" xmlns="http://www.w3.org/2000/svg"><path d="m404.066406 298.089844c19.488282-22.183594 23.402344-55.890625 8.597656-81.308594-10.039062-17.234375-26.492187-26.867188-46.5-28.039062.882813-2.289063 1.570313-4.695313 2.050782-7.203126 3.304687-17.328124-3.960938-36.695312-18.085938-48.183593-6.949218-5.65625-15.085937-9.078125-23.851562-10.210938 2.113281-6.75 2.449218-14.328125.609375-22-3.792969-15.828125-16.757813-29.773437-38.175781-31.40625 1.328124-5.691406 1.738281-12.019531 1.148437-18.699219-1.789063-20.253906-11.96875-38.667968-27.234375-49.257812-3-2.078125-6.894531-2.359375-10.160156-.730469-3.261719 1.632813-5.378906 4.910157-5.519532 8.558594-1.066406 27.871094-19.472656 45.941406-34.722656 56.195313-19.316406 12.988281-44.503906 20.738281-67.375 20.738281-20.707031 0-32.917968 8.433593-39.515625 15.511719-8.109375 8.695312-12.574219 20.3125-12.574219 32.714843 0 5.269531.804688 10.222657 2.28125 14.707031-14.324218-1.542968-26.871093 3.914063-34.457031 15.011719-8.570312 12.53125-9.660156 30.214844-2.9375 44.6875-30.554687 2.792969-44.382812 20.101563-49.613281 29.25-11.4375 20.011719-9.613281 45.84375 3.867188 63.789063-1.507813 5.121094-2.328126 10.53125-2.328126 16.132812 0 5.652344.824219 11.230469 2.449219 16.585938l8.8125 39.695312c1.195313 5.386719 6.535157 8.78125 11.917969 7.585938 5.386719-1.195313 8.785156-6.53125 7.589844-11.917969l-8.898438-40.082031c-.0625-.273438-.132812-.542969-.21875-.808594-1.105468-3.558594-1.671875-7.277344-1.671875-11.058594 0-5.007812 1-9.789062 2.800781-14.15625.054688-.121094.097657-.242187.148438-.363281 5.664062-13.335937 18.878906-22.714844 34.246094-22.714844 19.46875 0 35.554687 15.175781 37.027344 34.339844 0 1.289063.054687 2.464844.148437 3.503906.015625.195313.050781.382813.078125.574219l15.628906 172.484375h-40.527344c-9.597656 0-14.386718-9.136719-15.570312-16.960937-.035156-.21875-.074219-.4375-.125-.660157l-5.695312-25.765625c-1.191407-5.386718-6.519532-8.789062-11.910157-7.597656s-8.792969 6.523438-7.601562 11.910156l5.628906 25.460938c3.144531 19.796875 17.605469 33.597656 35.273437 33.597656h51.441407.007812.011719 156.121094.011718.007813 51.046875c17.664062 0 32.125-13.796875 35.273438-33.597656l31.921874-144.109375c1.664063-5.445313 2.507813-11.113281 2.507813-16.851563v-.378906c-.042969-6.652344-1.242187-13.035156-3.386719-18.972656zm-284.121094-182.410156c5.664063-6.074219 14.042969-9.15625 24.902344-9.15625 26.6875 0 56.039063-9.023438 78.523438-24.136719 20.054687-13.480469 33.746094-31.066407 39.902344-50.816407 4.042968 7.027344 6.109374 14.765626 6.679687 21.226563.808594 9.15625-1.105469 17.246094-4.992187 21.117187-3.152344 3.128907-3.855469 7.960938-1.730469 11.863282 2.125 3.898437 6.570312 5.929687 10.902343 4.980468 26.207032-5.71875 32.128907 10.070313 33.320313 15.042969 1.835937 7.648438-.421875 16.609375-7.09375 20.261719-1.359375.464844-2.71875.976562-4.078125 1.539062-.003906 0-.011719 0-.015625.003907-54.316406 20.96875-125.933594 31.648437-170.285156 25.394531-.042969-.007812-.085938-.007812-.128907-.011719-.046874-.007812-.089843-.019531-.136718-.023437l-3.613282-.414063c-6.101562-1.765625-9.363281-9.992187-9.363281-17.785156 0-7.214844 2.625-14.175781 7.207031-19.085937zm-42.871093 60.082031c3.464843-5.066407 8.847656-7.21875 16-6.398438l25.511719 2.902344c1.679687.351563 3.417968.550781 5.195312.597656 9.394531 1.292969 19.761719 1.917969 30.804688 1.917969 45.359374 0 102.003906-10.511719 148.445312-28.371094 1.726562-.488281 3.390625-1.101562 4.96875-1.835937 14.289062-4.535157 23.855469-.328125 29.519531 4.28125 8.453125 6.878906 13.003907 18.777343 11.066407 28.9375-1.007813 5.277343-4.238282 12.203125-13.890626 15.363281-.050781.015625-.101562.03125-.148437.046875-.019531.007813-.042969.011719-.0625.019531-.042969.015625-.089844.03125-.132813.042969-.003906.003906-.007812.003906-.007812.003906-.003906 0-.003906 0-.003906 0-31.09375 10.746094-78.117188 18.40625-132.4375 21.578125-51.269532 2.992188-90.660156.917969-105.582032-2.277344-4.03125-.945312-7.894531-1.703124-11.597656-2.277343-4.21875-2.085938-6.820312-5.429688-8.394531-8.414063-4.320313-8.179687-4.003906-19.164062.746094-26.117187zm121.460937 316.253906h-58.84375l-15.84375-174.851563c-.003906-.046874-.011718-.085937-.015625-.132812-.015625-.691406-.027343-1.382812-.066406-2.066406.105469-5.375 1.753906-16.132813 8.820313-23.867188 6.25-6.832031 15.828124-10.296875 28.46875-10.296875 20.359374 0 37.035156 16.605469 37.167968 37.019531.003906.816407.117188 1.609376.3125 2.371094zm78.992188 0h-59.011719v-177.894531c1.074219-6.855469 5.042969-16.03125 12.410156-23.253906 4.820313-4.726563 12.957031-10.308594 24.234375-10.070313 9.601563.203125 20.246094 5.8125 28.464844 15.003906 5.304688 5.925781 8.800781 12.613281 9.492188 17.882813zm109.941406-174.574219c0 3.855469-.578125 7.652344-1.71875 11.289063-.085938.273437-.164062.554687-.226562.835937l-32.078126 144.824219c-.050781.21875-.089843.441406-.125.664063-1.28125 8.441406-6.589843 16.960937-15.570312 16.960937h-40.164062l14.964843-171.234375c.277344-.773438.46875-1.585938.546875-2.4375.101563-1.101562.140625-2.21875.121094-3.347656 1.257812-19.410156 17.410156-34.820313 37.085938-34.820313 20.359374 0 37.03125 16.609375 37.164062 36.980469zm5.652344-37.808594c-10.492188-11.902343-25.8125-19.4375-42.816406-19.4375-20.253907 0-38.082032 10.609376-48.234376 26.570313-1.105468-1.445313-2.289062-2.878906-3.550781-4.285156-12.019531-13.441407-27.671875-21.339844-42.9375-21.660157-14.4375-.320312-27.804687 5.148438-38.644531 15.777344-3.058594 3-5.824219 6.359375-8.234375 9.933594-10.257813-15.476562-27.816406-25.710938-47.644531-25.710938-18.484375 0-33.027344 5.648438-43.214844 16.792969-1.976562 2.160157-3.691406 4.433594-5.179688 6.769531-10.425781-14.09375-27.148437-23.253906-45.917968-23.253906-17.488282 0-33.160156 7.90625-43.65625 20.328125-4.011719-10.554687-3.425782-23.117187 2.289062-33.113281 8.859375-15.5 28.210938-22.035156 54.011719-18.613281 4.226563 1.582031 8.824219 2.453125 13.679687 2.574219 12.878907 2.597656 34.953126 3.960937 60.863282 3.960937 15.398437 0 32.152344-.480469 49.128906-1.472656 32.417969-1.890625 93.273438-7.332031 137.457031-22.523438.105469-.03125.207031-.0625.308594-.097656 24.679687-7.863281 44.550781-2.527344 54.566406 14.664063 8.261719 14.179687 8.855469 36.011718-2.273437 52.796874zm0 0"/><path d="m40.980469 422.179688c5.460937-.78125 9.257812-5.839844 8.476562-11.304688l-.027343-.199219c-.78125-5.460937-5.839844-9.257812-11.304688-8.476562-5.460938.78125-9.257812 5.84375-8.476562 11.304687l.027343.199219c.710938 4.980469 4.988281 8.578125 9.878907 8.578125.46875 0 .945312-.035156 1.425781-.101562zm0 0"/></svg>